# xmcd CD database file
#
# Track frame offsets:
#	150
#	13160
#	26680
#	43967
#	76192
#	90080
#	122515
#	151272
#	166175
#	201987
#	215222
#	228442
#	250152
#	286725
#	306382
#	326127
#
# Disc length: 4528 seconds
#
# Revision: 0
# Processed by: cddbd v1.4b42PL1 Copyright (c) Steve Scherf et al.
# Submitted via: Feurio! 1.61 - http://www.feurio.com
#
DISCID=d511ae10
DTITLE=Big Joe Turner - Shake, Rattle and Roll
DYEAR=1900
DGENRE=
TTITLE0=Rol Em Hawk
TTITLE1=Corrine Corrina
TTITLE2=Piney Brown Blues
TTITLE3=The Night Time Is The Right time-live-
TTITLE4=Cherry Red
TTITLE5=Shoo Shoo Boogie Boo-live-
TTITLE6=How Long Blues
TTITLE7=Honey hush
TTITLE8=I Hear You Knocking
TTITLE9=Chain of love
TTITLE10=Shake, Rattle and Roll
TTITLE11=We, Baby Blues
TTITLE12=The Things I Used To Do -live-
TTITLE13=Nothin' For Nothin' Blues
TTITLE14=Squeeze Me
TTITLE15=T.V. mama
EXTD=Tomato -1994
EXTT0=
EXTT1=
EXTT2=
EXTT3=
EXTT4=
EXTT5=
EXTT6=
EXTT7=
EXTT8=
EXTT9=
EXTT10=
EXTT11=
EXTT12=
EXTT13=
EXTT14=
EXTT15=
PLAYORDER=
